# xmcd
#
# Track frame offsets:
# 150
# 11026
# 27908
# 39392
# 52274
# 62450
# 73970
# 84248
# 97018
# 108480
# 122835
# 133457
#
# Disc length: 1967 seconds
#
#
# Revision: 0
# Processed by: cddbd v1.5.1PL2 Copyright (c) Steve Scherf et al.
# Submitted via: Nero 7, 0, 5, 4 
#
DISCID=ad07ad0c
DTITLE=Dixie Aces - No Words
DYEAR=2006
DGENRE=country
TTITLE0=No Words
TTITLE1=No Words
TTITLE2=No Words
TTITLE3=No Words
TTITLE4=No Words
TTITLE5=No Words
TTITLE6=No Words
TTITLE7=No Words
TTITLE8=No Words
TTITLE9=No Words
TTITLE10=No Words
TTITLE11=No Words
EXTD=
EXTT0=
EXTT1=
EXTT2=
EXTT3=
EXTT4=
EXTT5=
EXTT6=
EXTT7=
EXTT8=
EXTT9=
EXTT10=
EXTT11=
PLAYORDER=
